,
Brought to you by  http://www.scenetime.com/signup.php
 
 Hottest scene tracker on the net !!!   
 
No fake torrents from scenebalance 
shame on those who comment fake before downloading my torrents

    seed back for speed


 



...................................NFO:.................................................::::::::::::::Enjoy:Another:Release:From:TDP::::::::::::::

[IMG]http://img.listal.com/image/1941806/600full-drive-angry-cover.jpg[/IMG]

TiTLE.........: Drive.Angry.DVDRip.XviD.AC3-TDP
RUNTiME.......: 1h 44mn
FORMAT........: XviD
RAR COUNT.....: 101x15MB
SOURCE .......: TWiZTED
GENRE.........: Action | Fantasy | Thriller
AUDIO.........: English 
SUBTITLES.....: None
SAMPEL........: YES
RELEASE DATE..: 15-05-2011

IMDB : http://www.imdb.com/title/tt1502404/
Votes: (6,212) 6.1/10 

Plot :
A vengeful father escapes from hell and chases after the
men who killed his daughter and kidnapped his 
granddaughter. 


General

Complete name                    : Drive.Angry.DVDRip.XviD.AC3-TDP
Format                           : AVI
Format/Info                      : Audio Video Interleave
Format profile                   : OpenDML
File size                        : 1.41 GiB
Duration                         : 1h 44mn
Overall bit rate                 : 1 927 Kbps
Writing application              : Lavf52.78.4


Video

Format                           : MPEG-4 Visual
Format profile                   : Advanced Simple@L5
Format settings, BVOP            : 2
Format settings, QPel            : No
Format settings, GMC             : No warppoints
Format settings, Matrix          : Default (H.263)
Muxing mode                      : Packed bitstream
Codec ID                         : DX50
Codec ID/Hint                    : DivX 5
Duration                         : 1h 44mn
Bit rate                         : 1 468 Kbps
Width                            : 720 pixels
Height                           : 404 pixels
Display aspect ratio             : 16:9
Frame rate                       : 23.976 fps
Color space                      : YUV
Chroma subsampling               : 4:2:0
Bit depth                        : 8 bits
Scan type                        : Progressive
Compression mode                 : Lossy
Stream size                      : 1.07 GiB (76%)


Audio

Format                           : AC-3
Format/Info                      : Audio Coding 3
Mode extension                   : CM (complete main)
Codec ID                         : 2000
Duration                         : 1h 44mn
Bit rate mode                    : Constant
Bit rate                         : 448 Kbps
Channel(s)                       : 6 channels
Channel positions                : Front: L C R, Side: L R, LFE
Sampling rate                    : 48.0 KHz
Bit depth                        : 16 bits
Compression mode                 : Lossy
Stream size                      : 105 MiB (7%)
Alignment                        : Aligned on interleaves
Interleave, duration             : 102 ms (2.45 video frames)
Interleave, preload duration     : 32 ms


Note:
\\\\Today I have 1 year wedding anniversary////


GREETS:

IMAGiNE,FLAWL3SS,ViSiON,FUSiON,Rx,CM8,SecretMyth,BirdFlu,ELEKTRI4KA,Serenity,INK,SUBLIME
And to all the other p2p grps past and present

Looking for : SYNCERS, CAMMERS, SEED/RiPBOXES for group use
CAPPERS, SiLVER SUPPLiERS, and R1-R2-R4 PRE-RETAiL SOURCE SUPPLIERS!
Always looking for CAM+LiNE+SCR+DVDSCR+BRSCR+RUS DVD+PRERETAIL BR & DVD
If you'd like to help, feel free to contact us at thedanishpirates@gmail.com